HIERARCHY
ROOT RootJoint
{
    OFFSET   0.000000   0.000000   0.000000
    CHANNELS 6 Xposition Yposition Zposition Xrotation Yrotation Zrotation
    JOINT pelvis_lowerback
    {
        OFFSET   0.000000   0.093605   0.000000
        CHANNELS 3 Xrotation Yrotation Zrotation
        JOINT lowerback_torso
        {
            OFFSET   0.000000   0.100000   0.000000
            CHANNELS 3 Xrotation Yrotation Zrotation
            JOINT torso_head
            {
                OFFSET   0.000000   0.282350   0.000000
                CHANNELS 3 Xrotation Yrotation Zrotation
                End Site
                {
                    OFFSET   0.000000   0.192650   0.000000
                }
            }
            JOINT rTorso_Clavicle
            {
                OFFSET  -0.001000   0.157500   0.000000
                CHANNELS 3 Xrotation Yrotation Zrotation
                JOINT rShoulder
                {
                    OFFSET  -0.117647   0.000000   0.000000
                    CHANNELS 3 Xrotation Yrotation Zrotation
                    JOINT rElbow
                    {
                        OFFSET  -0.245000   0.000000   0.000000
                        CHANNELS 3 Xrotation Yrotation Zrotation
                        JOINT rWrist
                        {
                            OFFSET  -0.240000   0.000000   0.000000
                            CHANNELS 3 Xrotation Yrotation Zrotation
                            End Site
                            {
                                OFFSET  -0.116353  -0.002500   0.000000
                            }
                        }
                    }
                }
            }
            JOINT lTorso_Clavicle
            {
                OFFSET   0.001000   0.157500   0.000000
                CHANNELS 3 Xrotation Yrotation Zrotation
                JOINT lShoulder
                {
                    OFFSET   0.117647   0.000000   0.000000
                    CHANNELS 3 Xrotation Yrotation Zrotation
                    JOINT lElbow
                    {
                        OFFSET   0.245000   0.000000   0.000000
                        CHANNELS 3 Xrotation Yrotation Zrotation
                        JOINT lWrist
                        {
                            OFFSET   0.240000   0.000000   0.000000
                            CHANNELS 3 Xrotation Yrotation Zrotation
                            End Site
                            {
                                OFFSET   0.116353  -0.002500   0.000000
                            }
                        }
                    }
                }
            }
        }
    }
    JOINT rHip
    {
        OFFSET  -0.100000  -0.051395   0.000000
        CHANNELS 3 Xrotation Yrotation Zrotation
        JOINT rKnee
        {
            OFFSET   0.000000  -0.410000   0.000000
            CHANNELS 3 Xrotation Yrotation Zrotation
            JOINT rAnkle
            {
                OFFSET   0.000000  -0.390000   0.000000
                CHANNELS 3 Xrotation Yrotation Zrotation
                JOINT rToeJoint
                {
                    OFFSET   0.000000  -0.050000   0.130000
                    CHANNELS 3 Xrotation Yrotation Zrotation
                    End Site
                    {
                        OFFSET  -0.010000   0.002000   0.060000
                    }
                }
            }
        }
    }
    JOINT lHip
    {
        OFFSET   0.100000  -0.051395   0.000000
        CHANNELS 3 Xrotation Yrotation Zrotation
        JOINT lKnee
        {
            OFFSET   0.000000  -0.410000   0.000000
            CHANNELS 3 Xrotation Yrotation Zrotation
            JOINT lAnkle
            {
                OFFSET   0.000000  -0.390000   0.000000
                CHANNELS 3 Xrotation Yrotation Zrotation
                JOINT lToeJoint
                {
                    OFFSET   0.000000  -0.050000   0.130000
                    CHANNELS 3 Xrotation Yrotation Zrotation
                    End Site
                    {
                        OFFSET   0.010000   0.002000   0.060000
                    }
                }
            }
        }
    }
}
MOTION
Frames: 14
Frame Time:   0.008333
 -2.376719   0.925631   3.975860   0.000000   0.000000   0.000000   0.000000   0.000000   0.000000   0.000000   0.000000   0.000000   0.000000   0.000000   0.000000   0.000000   0.000000   0.000000   0.000000   0.000000   0.000000   0.000000   0.000000   0.000000   0.000000   0.000000   0.000000   0.000000   0.000000   0.000000   0.000000   0.000000   0.000000   0.000000   0.000000   0.000000   0.000000   0.000000   0.000000   0.000000   0.000000   0.000000   0.000000   0.000000   0.000000   0.000000   0.000000   0.000000   0.000000   0.000000   0.000000   0.000000   0.000000   0.000000   0.000000   0.000000   0.000000   0.000000   0.000000   0.000000   0.000000   0.000000   0.000000
 -2.377476   0.926314   3.971001   0.860042  -0.218267  -0.646274  -0.393175   0.257748   0.704255   0.636995  -0.430908  -0.034514  -1.022683  -0.224100   0.084383   0.361344   0.256218   0.433709   0.622502   0.530603   1.943986   0.025275   1.190456  -0.022032   0.114145  -1.331192  -2.439912   0.150083  -0.060687  -0.638794   0.351044   0.782067  -1.982609   0.045388  -1.984515   0.028660   0.000723   0.897948   2.827233  -2.317133  -0.454565   0.700207   2.061154  -0.001177  -0.011598  -0.843841  -0.460405   0.020160  -0.095516   0.000058   0.000923  -2.641740   0.039165   1.024812   3.488891  -0.011436  -0.004017  -1.362437   0.375350  -0.634471   0.428981   0.000990   0.000855
 -2.378597   0.927354   3.964259   1.555860  -0.648207  -1.356209  -0.347589   0.578167   1.382989   1.571982  -0.772484  -0.042596  -1.973896  -0.456390   0.188733   0.702307   0.838340   1.578008   1.202413   1.359164   4.458997   0.060692   2.414460  -0.046284   0.260475  -2.133305  -4.109972   0.305879  -0.325782  -2.047578   0.703724   1.339011  -4.495821   0.105786  -3.922035   0.061962   0.032321   1.255318   4.852877  -4.753996  -0.934386   1.403063   4.037898  -0.001819  -0.023386  -1.628526  -0.898906   0.031319  -0.213341   0.000059   0.002033  -5.366074   0.021925   2.354190   7.049132  -0.028418  -0.010892  -2.604172   0.749179  -1.213153   0.894027   0.000723   0.000969
 -2.379917   0.928336   3.956422   2.192459  -1.142899  -2.034176  -0.041997   0.905476   1.968289   2.666721  -1.055390  -0.082095  -2.828549  -0.677825   0.290074   0.989734   1.662426   3.129728   1.713446   2.422575   7.327691   0.097857   3.631423  -0.068911   0.432748  -2.461096  -4.987464   0.433013  -0.802013  -3.904370   1.045323   1.670497  -7.250013   0.166963  -5.789995   0.094278   0.093703   1.228425   5.987794  -7.235118  -1.414473   2.001253   5.796000  -0.001765  -0.031410  -2.365012  -1.310446   0.034276  -0.337959  -0.000009   0.002975  -8.118229  -0.075049   3.839673  10.379061  -0.046439  -0.014577  -3.756612   1.112942  -1.743645   1.330479  -0.000343   0.000967
 -2.381375   0.928986   3.948046   2.820850  -1.623010  -2.672481   0.430090   1.217369   2.460405   3.829250  -1.314318  -0.162416  -3.602505  -0.887015   0.381823   1.203745   2.654590   4.884632   2.139231   3.670663  10.415203   0.132285   4.826609  -0.088193   0.638146  -2.412102  -5.325991   0.504952  -1.452860  -5.994645   1.364543   1.807995 -10.083809   0.221989  -7.587027   0.122783   0.192628   0.886676   6.485928  -9.719998  -1.886161   2.488494   7.352974  -0.001119  -0.035487  -3.056915  -1.695875   0.030334  -0.467263  -0.000133   0.003672 -10.893033  -0.257534   5.439819  13.458905  -0.063142  -0.013471  -4.830468   1.465012  -2.231068   1.721727  -0.001736   0.001163
 -2.382946   0.929105   3.939581   3.466199  -2.051712  -3.280409   1.000210   1.505098   2.870940   4.998652  -1.566488  -0.277044  -4.305442  -1.084091   0.462962   1.332148   3.744887   6.719681   2.467922   5.050877  13.640192   0.161639   5.986875  -0.103065   0.869984  -2.090433  -5.333737   0.504271  -2.224550  -8.184708   1.651663   1.795704 -12.898656   0.267552  -9.308286   0.145600   0.324010   0.305056   6.567349 -12.170533  -2.343263   2.874788   8.740284   0.000005  -0.036441  -3.706423  -2.056343   0.020912  -0.597881  -0.000301   0.004094 -13.678812  -0.530182   7.134660  16.306376  -0.077272  -0.008190  -5.831569   1.804345  -2.679447   2.070909  -0.003159   0.001587
 -2.384519   0.928539   3.931443   4.097682  -2.442857  -3.840425   1.639559   1.780992   3.200368   6.150138  -1.807031  -0.418027  -4.943331  -1.269232   0.529527   1.373215   4.882491   8.602593   2.683234   6.474998  16.854919   0.184553   7.104453  -0.112900   1.116306  -1.575699  -5.088282   0.425948  -3.058588 -10.402987   1.902444   1.681207 -15.644095   0.302341 -10.946828   0.161677   0.473790  -0.433258   6.372904 -14.519125  -2.775454   3.140249   9.996570   0.001531  -0.035631  -4.315634  -2.393010   0.007399  -0.729250  -0.000512   0.004314 -16.376990  -0.886926   8.858384  18.918604  -0.087667  -0.001065  -6.765852   2.131094  -3.091192   2.381346  -0.004385   0.002059
 -2.385645   0.926538   3.922699   4.420516  -3.155265  -4.492170   2.959517   2.169609   3.705675   6.935555  -1.781694  -0.580873  -5.535761  -1.426831   0.518767   1.061965   6.329828   9.850849   2.035103   7.839911  19.818266   0.188804   8.088595  -0.109247   1.085220  -1.460716  -3.770414   0.134500  -3.869389 -12.114416   1.925194   1.089796 -18.308848   0.328320 -12.729093   0.174495   0.320196  -0.694335   5.374017 -17.162689  -3.643864   3.368403  12.998413   0.005208  -0.062201  -5.048731  -2.944666  -0.257373  -0.895232  -0.001342   0.006055 -18.910411  -0.961794  10.833040  21.962291  -0.100524   0.010805  -7.926202   2.409457  -3.293573   2.674509  -0.005909   0.002703
 -2.386440   0.923340   3.914515   4.665983  -3.874136  -5.111085   4.248171   2.559222   4.195589   7.685692  -1.719241  -0.737435  -6.062951  -1.572865   0.516425   0.653803   7.851725  10.808088   1.314278   9.199565  22.441091   0.186868   9.052811  -0.104596   1.037540  -1.249463  -2.640976  -0.225843  -4.761503 -13.583207   1.880425   0.420071 -20.696931   0.339135 -14.452014   0.180719   0.189038  -1.171781   4.456233 -19.647926  -4.493093   3.432245  16.007364   0.008521  -0.083816  -5.718051  -3.468957  -0.514978  -1.005029  -0.001770   0.006529 -21.253758  -1.123270  12.821944  24.868277  -0.109232   0.021801  -9.004913   2.675207  -3.475644   2.946402  -0.007051   0.003216
 -2.386985   0.919041   3.907086   4.893932  -4.555840  -5.684676   5.437506   2.941107   4.650059   8.357464  -1.650556  -0.889629  -6.545249  -1.709195   0.518273   0.197898   9.341804  11.591939   0.557162  10.489450  24.817455   0.180829   9.978744  -0.098527   1.003495  -0.927613  -1.772929  -0.622753  -5.650555 -14.875493   1.791245  -0.250609 -22.859417   0.338441 -16.086598   0.180258   0.078425  -1.775027   3.708772 -21.964534  -5.276306   3.343549  18.841778   0.011386  -0.097693  -6.342754  -3.957423  -0.763226  -1.099410  -0.002060   0.006578 -23.440482  -1.366955  14.782072  27.583085  -0.113564   0.031851 -10.010808   2.926674  -3.640401   3.196852  -0.007814   0.003649
 -2.387339   0.913700   3.900448   5.112591  -5.188970  -6.216527   6.519729   3.311825   5.070952   8.948046  -1.580549  -1.034883  -6.994253  -1.836505   0.520800  -0.275852  10.753020  12.269373  -0.213396  11.680557  27.006355   0.172093  10.853933  -0.091270   0.973510  -0.561097  -1.086539  -1.032057  -6.491378 -16.037573   1.675160  -0.885970 -24.839417   0.329501 -17.622856   0.174443  -0.026475  -2.414178   3.088408 -24.119584  -5.988583   3.128428  21.494066   0.013930  -0.105324  -6.927819  -4.411680  -1.001714  -1.187091  -0.002278   0.006432 -25.479205  -1.678841  16.695480  30.113662  -0.114212   0.040693 -10.949695   3.164194  -3.789658   3.424351  -0.008221   0.003997
 -2.387547   0.907361   3.894568   5.319381  -5.769618  -6.711698   7.500712   3.670052   5.463105   9.469122  -1.509680  -1.170059  -7.415591  -1.955365   0.522905  -0.747556  12.066986  12.879070  -0.981006  12.764034  29.044320   0.161719  11.673433  -0.083321   0.942298  -0.196127  -0.512770  -1.436114  -7.264051 -17.099899   1.545492  -1.469809 -26.667541   0.314867 -19.058590   0.164847  -0.132541  -3.037229   2.550518 -26.121296  -6.630734   2.811665  23.976582   0.016195  -0.108312  -7.475818  -4.834029  -1.230257  -1.268774  -0.002429   0.006155 -27.375838  -2.045943  18.549290  32.473938  -0.111944   0.048117 -11.826134   3.388145  -3.924980   3.630761  -0.008333   0.004259
 -2.387645   0.900059   3.889380   5.510783  -6.297436  -7.174523   8.390891   4.015942   5.830996   9.934409  -1.437249  -1.292977  -7.812314  -2.066296   0.524384  -1.204985  13.279859  13.442473  -1.734384  13.741331  30.953881   0.150479  12.436749  -0.075161   0.908202   0.143564  -0.007787  -1.823267  -7.962545 -18.080981   1.411626  -1.996779 -28.364493   0.296492 -20.395866   0.152876  -0.241950  -3.618104   2.066132 -27.979337  -7.205600   2.415429  26.301675   0.018155  -0.107949  -7.988960  -5.226696  -1.448792  -1.344298  -0.002514   0.005788 -29.138074  -2.456570  20.333172  34.676523  -0.107464   0.054002 -12.644279   3.598956  -4.047755   3.818257  -0.008213   0.004436
 -2.387366   0.891461   3.884075   5.576558  -7.049812  -7.434478   9.665643   4.160487   5.914776  10.094634  -1.123099  -1.440470  -8.227526  -2.219277   0.416226  -1.566842  14.688730  13.605858  -2.622413  14.624547  32.401553   0.135777  13.178248  -0.067924   0.729889   0.473602   1.171785  -1.963584  -8.605772 -18.493990   1.570765  -2.443289 -29.761779   0.278090 -21.873891   0.151716  -0.463189  -4.207145   1.073491 -29.962769  -7.967235   1.845589  28.969034   0.015484  -0.121919  -8.458678  -5.494833  -1.775392  -1.196040  -0.000884   0.002456 -30.697931  -2.664375  21.889303  37.006842  -0.102439   0.057034 -13.660225   4.021265  -3.863355   3.872347  -0.007092   0.003906
